<svg width="20" height="20" viewBox="0 0 20 20" fill="none" xmlns="http://www.w3.org/2000/svg">
<path fill-rule="evenodd" clip-rule="evenodd" d="M7.08331 0.833344C6.08875 0.833344 5.13492 1.22843 4.43166 1.93169C3.7284 2.63495 3.33331 3.58878 3.33331 4.58334C3.33331 5.57791 3.7284 6.53173 4.43166 7.23499C4.52556 7.3289 4.62393 7.4173 4.72627 7.50001C4.62393 7.58272 4.52556 7.67112 4.43166 7.76503C3.7284 8.46829 3.33331 9.42211 3.33331 10.4167C3.33331 11.4112 3.7284 12.3651 4.43166 13.0683C4.52557 13.1622 4.62393 13.2506 4.72627 13.3333C4.62393 13.416 4.52557 13.5045 4.43166 13.5984C3.7284 14.3016 3.33331 15.2554 3.33331 16.25C3.33331 17.2446 3.7284 18.1984 4.43166 18.9017C5.13492 19.6049 6.08875 20 7.08331 20C8.07787 20 9.0317 19.6049 9.73496 18.9017C10.4382 18.1984 10.8333 17.2446 10.8333 16.25V13.5347C11.037 13.6708 11.2541 13.787 11.4816 13.8812C11.9366 14.0697 12.4242 14.1667 12.9166 14.1667C13.4091 14.1667 13.8967 14.0697 14.3517 13.8812C14.8067 13.6928 15.2201 13.4165 15.5683 13.0683C15.9165 12.7201 16.1927 12.3067 16.3812 11.8517C16.5696 11.3968 16.6666 10.9091 16.6666 10.4167C16.6666 9.92422 16.5696 9.43658 16.3812 8.98161C16.1927 8.52665 15.9165 8.11325 15.5683 7.76503C15.4746 7.67138 15.3763 7.58294 15.2737 7.50001C15.3763 7.41709 15.4746 7.32864 15.5683 7.23499C15.9165 6.88677 16.1927 6.47338 16.3812 6.01841C16.5696 5.56344 16.6666 5.0758 16.6666 4.58334C16.6666 4.09089 16.5696 3.60325 16.3812 3.14828C16.1927 2.69331 15.9165 2.27991 15.5683 1.93169C15.2201 1.58347 14.8067 1.30725 14.3517 1.1188C13.8967 0.93034 13.4091 0.833344 12.9166 0.833344H9.99998H7.08331ZM7.08331 2.50001C6.53078 2.50001 6.00087 2.7195 5.61017 3.1102C5.21947 3.50091 4.99998 4.03081 4.99998 4.58334C4.99998 5.13588 5.21947 5.66578 5.61017 6.05648C6.00087 6.44718 6.53078 6.66668 7.08331 6.66668H9.16665V2.50001H7.08331ZM10.8333 2.50001V6.66668H12.9166C13.1902 6.66668 13.4611 6.61279 13.7139 6.50809C13.9667 6.4034 14.1963 6.24994 14.3898 6.05648C14.5832 5.86303 14.7367 5.63336 14.8414 5.3806C14.9461 5.12784 15 4.85693 15 4.58334C15 4.30976 14.9461 4.03885 14.8414 3.78609C14.7367 3.53332 14.5832 3.30366 14.3898 3.1102C14.1963 2.91675 13.9667 2.76329 13.7139 2.65859C13.4611 2.5539 13.1902 2.50001 12.9166 2.50001H10.8333ZM12.9166 8.33334C12.6431 8.33334 12.3722 8.38723 12.1194 8.49193C11.8666 8.59662 11.637 8.75008 11.4435 8.94354C11.2501 9.13699 11.0966 9.36666 10.9919 9.61942C10.8872 9.87218 10.8333 10.1431 10.8333 10.4167C10.8333 10.6903 10.8872 10.9612 10.9919 11.2139C11.0966 11.4667 11.2501 11.6964 11.4435 11.8898C11.637 12.0833 11.8666 12.2367 12.1194 12.3414C12.3722 12.4461 12.6431 12.5 12.9166 12.5C13.1902 12.5 13.4611 12.4461 13.7139 12.3414C13.9667 12.2367 14.1963 12.0833 14.3898 11.8898C14.5832 11.6964 14.7367 11.4667 14.8414 11.2139C14.9461 10.9612 15 10.6903 15 10.4167C15 10.1431 14.9461 9.87218 14.8414 9.61942C14.7367 9.36666 14.5832 9.13699 14.3898 8.94354C14.1963 8.75008 13.9667 8.59662 13.7139 8.49193C13.4611 8.38723 13.1902 8.33334 12.9166 8.33334ZM7.08331 14.1667C6.53078 14.1667 6.00087 14.3862 5.61017 14.7769C5.21947 15.1676 4.99998 15.6975 4.99998 16.25C4.99998 16.8025 5.21947 17.3324 5.61017 17.7232C6.00087 18.1139 6.53078 18.3333 7.08331 18.3333C7.63585 18.3333 8.16575 18.1139 8.55645 17.7232C8.94715 17.3324 9.16665 16.8025 9.16665 16.25V14.1667H7.08331ZM7.08331 8.33334C6.53078 8.33334 6.00087 8.55284 5.61017 8.94354C5.21947 9.33424 4.99998 9.86414 4.99998 10.4167C4.99998 10.9692 5.21947 11.4991 5.61017 11.8898C6.00087 12.2805 6.53078 12.5 7.08331 12.5H9.16665V10.4167V8.33334H7.08331Z" fill="black"/>
</svg>
