<svg width="20" height="20" viewBox="0 0 20 20" fill="none" xmlns="http://www.w3.org/2000/svg">
<path d="M5.97669 1.91782L8.67835 4.68782H11.3209L14.0234 1.91868C14.1797 1.7584 14.3918 1.66836 14.6129 1.66836C14.8341 1.66836 15.0462 1.7584 15.2025 1.91868C15.3589 2.07895 15.4467 2.29633 15.4467 2.52298C15.4467 2.74964 15.3589 2.96702 15.2025 3.12729L13.6784 4.68782H15.4167C15.7997 4.68782 16.179 4.76514 16.5328 4.91538C16.8867 5.06561 17.2082 5.28582 17.4791 5.56342C17.7499 5.84102 17.9648 6.17058 18.1113 6.53329C18.2579 6.89599 18.3334 7.28474 18.3334 7.67732V14.5105C18.3334 14.9031 18.2579 15.2918 18.1113 15.6545C17.9648 16.0172 17.7499 16.3468 17.4791 16.6244C17.2082 16.902 16.8867 17.1222 16.5328 17.2724C16.179 17.4227 15.7997 17.5 15.4167 17.5H4.58335C4.20033 17.5 3.82106 17.4227 3.46719 17.2724C3.11333 17.1222 2.7918 16.902 2.52096 16.6244C2.25012 16.3468 2.03528 16.0172 1.8887 15.6545C1.74213 15.2918 1.66669 14.9031 1.66669 14.5105V7.67732C1.66669 7.28474 1.74213 6.89599 1.8887 6.53329C2.03528 6.17058 2.25012 5.84102 2.52096 5.56342C2.7918 5.28582 3.11333 5.06561 3.46719 4.91538C3.82106 4.76514 4.20033 4.68782 4.58335 4.68782H6.32085L4.79752 3.12558C4.7201 3.04623 4.65868 2.95201 4.61678 2.84833C4.57487 2.74464 4.55331 2.63351 4.55331 2.52128C4.55331 2.29462 4.64115 2.07724 4.79752 1.91697C4.95389 1.7567 5.16597 1.66666 5.3871 1.66666C5.4966 1.66666 5.60502 1.68876 5.70618 1.73171C5.80734 1.77466 5.89926 1.83761 5.97669 1.91697V1.91782ZM15.4167 6.39611H4.58335C4.27262 6.39612 3.97303 6.51476 3.743 6.7289C3.51298 6.94303 3.36902 7.2373 3.33919 7.55433L3.33335 7.67732V14.5105C3.33337 14.829 3.44912 15.1361 3.65804 15.3718C3.86695 15.6076 4.15405 15.7551 4.46335 15.7857L4.58335 15.7917H15.4167C15.7274 15.7917 16.027 15.673 16.257 15.4589C16.4871 15.2448 16.631 14.9505 16.6609 14.6335L16.6667 14.5105V7.67732C16.6667 7.33752 16.535 7.01164 16.3006 6.77137C16.0662 6.53109 15.7482 6.39611 15.4167 6.39611ZM6.66669 8.95854C6.8877 8.95854 7.09966 9.04853 7.25594 9.20871C7.41222 9.3689 7.50002 9.58615 7.50002 9.81269V11.521C7.49999 11.7475 7.41217 11.9647 7.2559 12.1249C7.09962 12.285 6.88768 12.375 6.66669 12.375C6.4457 12.375 6.23375 12.285 6.07748 12.1249C5.9212 11.9647 5.83339 11.7475 5.83335 11.521V9.81269C5.83335 9.58615 5.92115 9.3689 6.07743 9.20871C6.23371 9.04853 6.44567 8.95854 6.66669 8.95854ZM13.3334 8.95854C13.5544 8.95854 13.7663 9.04853 13.9226 9.20871C14.0789 9.3689 14.1667 9.58615 14.1667 9.81269V11.521C14.1667 11.7475 14.0788 11.9647 13.9226 12.1249C13.7663 12.285 13.5543 12.375 13.3334 12.375C13.1124 12.375 12.9004 12.285 12.7441 12.1249C12.5879 11.9647 12.5001 11.7475 12.5 11.521V9.81269C12.5 9.58615 12.5878 9.3689 12.7441 9.20871C12.9004 9.04853 13.1123 8.95854 13.3334 8.95854Z" fill="black"/>
</svg>
