<svg width="20" height="20" viewBox="0 0 20 20" fill="none" xmlns="http://www.w3.org/2000/svg">
<g clip-path="url(#clip0)">
<path d="M13.3333 19.1667C12.8333 19.1667 12.5 18.8333 12.5 18.3333V15.0833C12.5833 14.4167 12.3333 13.9167 11.9167 13.5C11.6667 13.25 11.5833 12.9167 11.75 12.6667C11.8333 12.3333 12.1667 12.1667 12.4167 12.0833C14.8333 11.8333 17.0833 11 17.0833 7.08334C17.0833 6.16667 16.75 5.25001 16.0833 4.50001C15.8333 4.25001 15.8333 3.91667 15.9167 3.66667C16.1667 3.00001 16.1667 2.33334 16 1.66667C15.5833 1.75001 14.9167 2.00001 13.8333 2.75001C13.6667 2.91667 13.4167 2.91667 13.1667 2.83334C11.4167 2.33334 9.49999 2.33334 7.74999 2.83334C7.49999 2.91667 7.24999 2.91667 6.99999 2.75001C5.99999 2.00001 5.24999 1.75001 4.83332 1.66667C4.66665 2.33334 4.66665 3.00001 4.91665 3.66667C4.99999 4.00001 4.99999 4.33334 4.74999 4.50001C4.08332 5.25001 3.74999 6.16667 3.74999 7.08334C3.74999 11 5.99999 11.8333 8.41665 12.0833C8.74999 12.0833 8.99999 12.3333 9.08332 12.6667C9.16665 13 9.08332 13.3333 8.91665 13.5C8.49999 13.9167 8.33332 14.4167 8.33332 15V15.75V15.8333V18.25C8.33332 18.75 7.99999 19.0833 7.49999 19.0833C6.99999 19.0833 6.66665 18.75 6.66665 18.25V16.8333C4.16665 17.25 3.08332 15.8333 2.33332 14.9167C1.99999 14.5 1.74999 14.1667 1.41665 14.0833C0.999986 14 0.666653 13.5 0.83332 13.0833C0.916653 12.6667 1.41665 12.3333 1.83332 12.5C2.66665 12.75 3.16665 13.3333 3.66665 13.9167C4.33332 14.8333 4.91665 15.5 6.66665 15.1667V15.0833C6.66665 14.5833 6.74999 14 6.91665 13.5833C4.58332 13.0833 2.08332 11.5833 2.08332 7.16667C2.08332 5.91667 2.49999 4.75001 3.24999 3.83334C2.91665 2.66667 2.99999 1.58334 3.49999 0.500005C3.58332 0.250005 3.74999 0.0833385 3.99999 5.1856e-06C4.33332 -0.0833282 5.41665 -0.249995 7.66665 1.16667C9.49999 0.750005 11.4167 0.750005 13.1667 1.16667C15.3333 -0.249995 16.5 -0.0833282 16.8333 5.1856e-06C17.0833 0.0833385 17.25 0.250005 17.3333 0.500005C17.75 1.58334 17.8333 2.66667 17.5833 3.75001C18.3333 4.66667 18.75 5.83334 18.75 7.08334C18.75 11.8333 15.9167 13.0833 13.9167 13.5833C14.0833 14.0833 14.1667 14.6667 14.1667 15.1667V18.3333C14.1667 18.8333 13.8333 19.1667 13.3333 19.1667Z" fill="black"/>
</g>
<defs>
<clipPath id="clip0">
<rect width="20" height="20" fill="white"/>
</clipPath>
</defs>
</svg>
