<svg width="64" height="64" viewBox="0 0 64 64" fill="none" xmlns="http://www.w3.org/2000/svg">
<path fill-rule="evenodd" clip-rule="evenodd" d="M32.9475 50.6H14.8142L8.70711 56.7071C8.31658 57.0976 7.68342 57.0976 7.29289 56.7071C6.90237 56.3166 6.90237 55.6834 7.29289 55.2929L13.4 49.1858V31.0525L28.0929 16.3596C33.4908 10.9616 42.2425 10.9617 47.6404 16.3596C53.0383 21.7575 53.0383 30.5092 47.6404 35.9071L32.9475 50.6ZM29.5071 17.7738C34.124 13.1569 41.6094 13.1569 46.2262 17.7738C50.8431 22.3906 50.8431 29.876 46.2262 34.4929L40.6525 40.0667H25.3475L38.5738 26.8404C38.9643 26.4499 38.9643 25.8167 38.5738 25.4262C38.1833 25.0357 37.5501 25.0357 37.1596 25.4262L15.4 47.1858V31.8809L29.5071 17.7738ZM16.8142 48.6L23.3475 42.0667H38.6525L32.1191 48.6H16.8142Z" fill="black"/>
</svg>
